<?xml version="1.0" encoding="UTF-8"?>
<svg width="65px" height="59px" viewBox="0 0 65 59" version="1.1" xmlns="http://www.w3.org/2000/svg" xmlns:xlink="http://www.w3.org/1999/xlink">
    <!-- Generator: Sketch 48.2 (47327) - http://www.bohemiancoding.com/sketch -->
    <title>Combined Shape</title>
    <desc>Created with Sketch.</desc>
    <defs></defs>
    <g id="列表3" stroke="none" stroke-width="1" fill="none" fill-rule="evenodd" transform="translate(-632.000000, -443.000000)">
        <g id="Page-1" transform="translate(632.000000, 443.000000)" fill="#F9D3D1">
            <path d="M34.3224959,26.3423059 L36.003503,25.3237277 L35.51133,24.5015551 L33.8298851,25.5201332 L34.3224959,26.3423059 Z M34.4704981,22.763851 L32.7890531,23.7824292 L33.2816639,24.6041615 L34.962671,23.5855834 L34.4704981,22.763851 Z M31.660208,27.9549445 L33.3066229,26.9575042 L32.814012,26.1353315 L31.1675972,27.1323315 L31.660208,27.9549445 Z M31.773618,24.3976275 L30.1272031,25.3946275 L30.619376,26.2163598 L32.2657909,25.2193598 L31.773618,24.3976275 Z M32.3866448,20.8257782 L29.7712096,22.4097928 C30.3842365,22.4225635 30.9657362,22.4379765 31.5200876,22.4868577 C31.8629447,21.9429995 32.1493158,21.3854898 32.3866448,20.8257782 Z M27.4592228,23.8101726 L26.9044335,22.8823108 L33.3140668,19 L33.7847838,19.7865026 C33.4594417,20.7835026 33.0311987,21.7153277 32.5136289,22.6048771 C32.5508484,22.6145653 32.5810619,22.611923 32.6187192,22.6211708 L34.9657362,21.1996532 L38.0882321,26.4132056 C38.5029009,27.1059092 38.3286262,27.6916027 37.5697865,28.15135 L36.6708265,28.696089 L35.8817734,27.9095863 L36.7386973,27.4546831 C36.9952928,27.2992321 37.058347,27.0852118 36.9037767,26.8271544 L36.5447181,26.2278094 L34.863711,27.2463876 L36.0170772,29.17213 L35.0012042,29.7873283 L33.847838,27.8615859 L32.2014231,28.8585859 L33.3688013,30.807668 L32.3178982,31.4440041 L28.5206349,25.1035422 L31.2061303,23.4772521 C30.6662288,23.4525913 30.0724685,23.4433435 29.4388615,23.4750502 L29.7129721,22.4450224 L27.4592228,23.8101726 Z M35.2332786,31.8227231 C34.4678708,32.2705805 33.8062397,32.5748768 33.2461959,32.7549886 C32.6940339,32.896788 32.116913,32.8624391 31.5275315,32.6752814 C31.2446634,32.5748768 31.0480569,32.565629 30.9079365,32.6506206 C30.6631637,32.7990257 30.5589491,33.5820053 30.5961686,35 L29.3219485,34.7313737 C29.3363985,33.4265544 29.5027915,32.5092616 29.8294472,31.9918256 L27.8388615,28.668786 L26.2747674,29.6164644 L25.6556103,28.5829136 L28.2596606,27.005945 L30.9180077,31.4448848 C31.0042693,31.4558941 31.0979748,31.4796741 31.1982485,31.5149038 C31.6571429,31.669474 32.0775041,31.7342086 32.4606459,31.7099882 C32.9094691,31.6624281 33.4870279,31.4567748 34.1893815,31.0630831 C34.8619595,30.6715933 35.6514505,30.2092038 36.5622332,29.6574189 C37.1345375,29.3112873 37.7107827,28.9457793 38.2879037,28.5807117 C38.8645868,28.2152038 39.3059661,27.9157515 39.6067871,27.7012908 L40,28.9677979 L37.3377121,30.5804365 C36.6957854,30.9692841 35.9877395,31.3814714 35.2332786,31.8227231 Z M27.4307608,24.7710621 L27.1124247,26.0203947 C26.2940339,25.7160983 25.2606459,25.478298 24,25.3131588 L24.3231527,24.1250378 C25.4896552,24.2672777 26.5278599,24.4861421 27.4307608,24.7710621 Z M46.2985318,19.0773143 L45.7873844,20.1817039 C44.9808592,19.7504261 43.9746601,19.3296264 42.7800979,18.9109224 L43.3169114,17.8987398 C44.5467102,18.2969069 45.5385536,18.6959122 46.2985318,19.0773143 Z M47.6257749,22.237084 L46.7461664,21.3611165 C47.2960305,21.1029367 47.8093529,20.8359552 48.2843937,20.5601721 C48.5976074,20.3782727 48.6624252,20.127637 48.4810223,19.8367655 L45.7073409,15.3999274 L41.3454051,17.9305932 L40.6959217,16.8915868 L45.0569875,14.3605018 L43.9816204,12.639582 L45.0835237,12 L46.1593257,13.7209198 L47.8067428,12.765319 L48.4562262,13.8043254 L46.8092442,14.7603454 L49.7434475,19.4545251 C50.2184883,20.2139764 50.0501359,20.8300875 49.2614464,21.28777 L47.6257749,22.237084 Z M48.3692224,23.8305904 C47.5735726,24.2773757 46.8818923,24.5871078 46.325068,24.7585292 C45.753888,24.9068988 45.1570419,24.8876191 44.5597607,24.7166168 C44.2787384,24.6206376 44.0599239,24.625248 43.9211528,24.7061388 C43.6775421,24.8473833 43.5700924,25.6110257 43.6162045,27 L42.3502991,26.744754 C42.3620446,25.4739724 42.532137,24.5833357 42.8497009,24.0791305 L40.8794997,20.9277432 L39.3016857,21.8431082 L38.6730832,20.8372126 L41.3058184,19.3090894 L43.9537792,23.5451675 C44.0516585,23.5489396 44.1447526,23.5715723 44.2439369,23.604683 C44.7046221,23.7337729 45.1457314,23.7823912 45.5381185,23.7526335 C45.9957586,23.7002431 46.5847743,23.4802034 47.3182164,23.0853894 C48.0098967,22.6993769 48.8281675,22.2391796 49.7795541,21.6876135 C50.3015769,21.3845874 50.828385,21.0639582 51.3734638,20.7475202 C51.9163676,20.4017436 52.3200653,20.1368577 52.5963023,19.9465758 L53,21.1741876 L50.5408374,22.6013021 C49.8796085,22.9847998 49.1531267,23.3909302 48.3692224,23.8305904 Z M40.3944535,17.218922 L40.0760196,18.4540781 C39.262534,18.1648831 38.2406743,17.9201151 37,17.756238 L37.321044,16.6258627 C38.4616639,16.7566291 39.4861338,16.953617 40.3944535,17.218922 Z M17.4831486,35.0535796 L19.3871287,38.1916917 C19.6505643,38.6256267 20.0006621,38.7116434 20.437422,38.4505977 L26.1743691,35.0210558 C26.3813234,34.8973801 26.5348146,34.7116525 26.6132848,34.478851 C26.6930484,34.1976919 26.3925335,33.4440829 25.7345911,32.2047575 L27.0116719,31.9077645 C27.7459287,33.4286769 28.0701572,34.4013932 27.9873754,34.8079398 C27.863634,35.2234733 27.5790718,35.5808064 27.1216164,35.8850744 L20.7758786,39.6787964 C19.7980193,40.2629398 19.0107304,40.0493958 18.4015086,39.0458675 L14.8005029,33.1115705 L15.9042594,32.4521091 L16.8532313,34.0149599 L22.8656864,30.4206597 L21.2178124,27.7049282 L13.6299173,32.2411328 L13,31.2025131 L21.7028616,26 L24.6110014,30.7925429 L17.4831486,35.0535796 Z M32.7530273,59 C26.9986523,59 21.3559961,57.4408382 16.4339258,54.4904044 C14.3589648,53.2466324 12.4197852,51.7620882 10.6692383,50.0779853 C10.2395508,49.6649853 10.2232227,48.9782426 10.6331445,48.5448529 C11.0430664,48.1105956 11.7224023,48.0954118 12.1516602,48.5079779 C13.7849023,50.0797206 15.5947461,51.4649191 17.5304883,52.6253971 C22.1208398,55.3767059 27.3845117,56.8308824 32.7530273,56.8308824 C49.2195117,56.8308824 62.6163086,43.3051324 62.6163086,26.6801471 C62.6163086,20.3445882 60.692168,14.2823382 57.0518555,9.14847059 C55.0976367,6.39282353 52.7175977,4.00375735 49.9779102,2.04721324 C49.4932227,1.70102206 49.3784961,1.02425735 49.720957,0.535338235 C50.0638477,0.0468529412 50.7341602,-0.0698455882 51.218418,0.276345588 C54.1544727,2.37301471 56.704668,4.93300735 58.7985352,7.88561029 C62.7018164,13.3899632 64.7647461,19.8890735 64.7647461,26.6801471 C64.7647461,44.5016176 50.4041602,59 32.7530273,59 Z M2.60197197,34 C2.0864148,34 1.62877073,33.6309847 1.5325392,33.1036951 C1.17896452,31.1685508 1,29.1813772 1,27.1968269 C1,16.3589699 6.3467284,6.26220406 15.3019215,0.187442674 C15.8004966,-0.150529872 16.47673,-0.0189260731 16.8133226,0.481255806 C17.1499153,0.981437684 17.0188488,1.66088055 16.5207091,1.9988531 C8.16511246,7.66656087 3.17718397,17.0865072 3.17718397,27.1968269 C3.17718397,29.0493362 3.3443917,30.9040316 3.67401736,32.7097581 C3.78244112,33.3035055 3.39098344,33.8727684 2.79966027,33.9816367 C2.73347388,33.9938789 2.66685205,34 2.60197197,34 Z M13.6499846,28 C13.2911931,28 13,27.7001915 13,27.3297872 C13,16.1198085 21.8445573,7 32.7162,7 C36.2243837,7 39.6693021,7.96242553 42.6787309,9.7827234 C42.9885569,9.96993617 43.0921211,10.3805532 42.9105587,10.7000213 C42.728563,11.0199362 42.3303391,11.1258298 42.0213798,10.9390638 C39.2108463,9.23895745 35.9934225,8.34042553 32.7162,8.34042553 C22.5612737,8.34042553 14.2999692,16.8588298 14.2999692,27.3297872 C14.2999692,27.7001915 14.0087761,28 13.6499846,28 Z M32.6337635,47 C28.9609887,47 25.3869604,45.9160426 22.2973008,43.8647447 C21.9993587,43.6672553 21.9104017,43.2530638 22.0989565,42.9402979 C22.2870856,42.6270851 22.6816461,42.5341489 22.9795882,42.7320851 C25.8649446,44.6471064 29.2027474,45.6595745 32.6337635,45.6595745 C42.6084394,45.6595745 50.7231053,37.1411702 50.7231053,26.6702128 C50.7231053,26.2998085 51.0091297,26 51.3615526,26 C51.7139756,26 52,26.2998085 52,26.6702128 C52,37.8801915 43.312434,47 32.6337635,47 Z M3.16203994,46 C2.93380678,46 2.70733265,45.9318735 2.5155992,45.7977362 C2.17742715,45.5611975 2.00768148,45.160055 2.07848213,44.763144 L2.61850201,41.7351105 L0.331772883,39.5910293 C0.0322993178,39.3096372 -0.0754408047,38.8894531 0.0538473423,38.5065059 C0.183135489,38.1235587 0.527464126,37.8442822 0.941274147,37.7863112 L4.10091815,37.3445467 L5.5138529,34.5898657 C5.69942976,34.2284989 6.08157738,34 6.49978496,34 C6.91799254,34 7.30014015,34.2284989 7.48571702,34.5898657 L8.89865177,37.3445467 L12.0582958,37.7863112 C12.4725455,37.8442822 12.8168742,38.1235587 12.9461623,38.5065059 C13.0754505,38.8894531 12.9677104,39.3096372 12.667797,39.5910293 L10.3815077,41.7355337 L10.9210878,44.7635671 C10.9918884,45.160055 10.8221428,45.5611975 10.483531,45.7977362 C10.1444794,46.034698 9.69460941,46.0651645 9.32609421,45.8785571 L6.49978496,44.4487464 L3.6734757,45.8785571 C3.51296491,45.9598011 3.33706267,46 3.16203994,46 Z" id="Combined-Shape"></path>
        </g>
    </g>
</svg>