<?xml version="1.0" encoding="UTF-8"?>
<svg width="24px" height="24px" viewBox="0 0 24 24" version="1.1" xmlns="http://www.w3.org/2000/svg" xmlns:xlink="http://www.w3.org/1999/xlink">
    <!-- Generator: Sketch 48.2 (47327) - http://www.bohemiancoding.com/sketch -->
    <title>Combined Shape</title>
    <desc>Created with Sketch.</desc>
    <defs></defs>
    <g id="列表2" stroke="none" stroke-width="1" fill="none" fill-rule="evenodd" transform="translate(-432.000000, -174.000000)">
        <path d="M444,198 C437.372583,198 432,192.627417 432,186 C432,179.372583 437.372583,174 444,174 C450.627417,174 456,179.372583 456,186 C456,192.627417 450.627417,198 444,198 Z M449.082192,180 L438.917808,180 C438.6621,180 438.445205,180.088163 438.267123,180.264488 C438.089041,180.440814 438,180.655569 438,180.908755 L438,181.600493 C438,181.853679 438.089041,182.068434 438.267123,182.24476 C438.445205,182.421085 438.6621,182.509248 438.917808,182.509248 L449.082192,182.509248 C449.3379,182.509248 449.554795,182.421085 449.732877,182.24476 C449.910959,182.068434 450,181.853679 450,181.600493 L450,180.908755 C450,180.655569 449.910959,180.440814 449.732877,180.264488 C449.554795,180.088163 449.3379,180 449.082192,180 Z M449.082192,184.245376 L438.917808,184.245376 C438.6621,184.245376 438.445205,184.333539 438.267123,184.509864 C438.089041,184.68619 438,184.900945 438,185.154131 L438,185.845869 C438,186.099055 438.089041,186.31381 438.267123,186.490136 C438.445205,186.666461 438.6621,186.754624 438.917808,186.754624 L449.082192,186.754624 C449.3379,186.754624 449.554795,186.666461 449.732877,186.490136 C449.910959,186.31381 450,186.099055 450,185.845869 L450,185.154131 C450,184.900945 449.910959,184.68619 449.732877,184.509864 C449.554795,184.333539 449.3379,184.245376 449.082192,184.245376 Z M449.082192,188.490752 L438.917808,188.490752 C438.6621,188.490752 438.445205,188.578915 438.267123,188.75524 C438.089041,188.931566 438,189.146321 438,189.399507 L438,190.091245 C438,190.344431 438.089041,190.559186 438.267123,190.735512 C438.445205,190.911837 438.6621,191 438.917808,191 L449.082192,191 C449.3379,191 449.554795,190.911837 449.732877,190.735512 C449.910959,190.559186 450,190.344431 450,190.091245 L450,189.399507 C450,189.146321 449.910959,188.931566 449.732877,188.75524 C449.554795,188.578915 449.3379,188.490752 449.082192,188.490752 Z" id="Combined-Shape" fill="#D8D8D8"></path>
    </g>
</svg>