<?xml version="1.0" encoding="UTF-8"?>
<svg width="16px" height="16px" viewBox="0 0 16 16" version="1.1" xmlns="http://www.w3.org/2000/svg" xmlns:xlink="http://www.w3.org/1999/xlink">
    <!-- Generator: Sketch 49.3 (51167) - http://www.bohemiancoding.com/sketch -->
    <title>Shape</title>
    <desc>Created with Sketch.</desc>
    <defs></defs>
    <g id="第二版" stroke="none" stroke-width="1" fill="none" fill-rule="evenodd">
        <g id="列表页" transform="translate(-884.000000, -348.000000)" fill="#5E5E5E" fill-rule="nonzero">
            <path d="M892,348 C887.581719,348 884,351.581711 884,355.99998 C884,360.418289 887.5817,364 892,364 C896.418261,364 900,360.418289 900,355.99998 C900,351.58173 896.418261,348 892,348 Z M892,363.199961 C888.023542,363.199961 884.799982,359.97641 884.799982,355.999961 C884.799982,352.023551 888.023542,348.8 892,348.8 C895.976458,348.8 899.199998,352.023551 899.199998,355.999961 C899.199998,359.97641 895.976458,363.199961 892,363.199961 Z M895.631404,355.433009 C894.38645,354.585906 892.128965,353.317991 890.84354,352.532368 C890.31653,352.200029 889.873358,352.333493 889.830832,352.920475 C889.800004,354.49266 889.830832,357.526138 889.830832,359.125532 C889.857572,359.721414 890.382939,359.80001 890.838904,359.560761 C892.122882,358.782845 894.329645,357.4459 895.620157,356.664032 C895.611745,356.658908 896.600001,356.11537 895.631404,355.433009 Z" id="Shape"></path>
        </g>
    </g>
</svg>
