<?xml version="1.0" encoding="UTF-8"?>
<svg width="16px" height="16px" viewBox="0 0 16 16" version="1.1" xmlns="http://www.w3.org/2000/svg" xmlns:xlink="http://www.w3.org/1999/xlink">
    <!-- Generator: Sketch 49.3 (51167) - http://www.bohemiancoding.com/sketch -->
    <title>Shape</title>
    <desc>Created with Sketch.</desc>
    <defs></defs>
    <g id="第二版" stroke="none" stroke-width="1" fill="none" fill-rule="evenodd">
        <g id="列表页-1" transform="translate(-884.000000, -399.000000)" fill="#F5A623" fill-rule="nonzero">
            <path d="M892,399 C887.581719,399 884,402.581711 884,406.99998 C884,411.418289 887.5817,415 892,415 C896.418261,415 900,411.418289 900,406.99998 C900,402.58173 896.418261,399 892,399 Z M892,414.199961 C888.023542,414.199961 884.799982,410.97641 884.799982,406.999961 C884.799982,403.023551 888.023542,399.8 892,399.8 C895.976458,399.8 899.199998,403.023551 899.199998,406.999961 C899.199998,410.97641 895.976458,414.199961 892,414.199961 Z M895.631404,406.433009 C894.38645,405.585906 892.128965,404.317991 890.84354,403.532368 C890.31653,403.200029 889.873358,403.333493 889.830832,403.920475 C889.800004,405.49266 889.830832,408.526138 889.830832,410.125532 C889.857572,410.721414 890.382939,410.80001 890.838904,410.560761 C892.122882,409.782845 894.329645,408.4459 895.620157,407.664032 C895.611745,407.658908 896.600001,407.11537 895.631404,406.433009 Z" id="Shape"></path>
        </g>
    </g>
</svg>