<?xml version="1.0" encoding="UTF-8"?>
<svg width="12px" height="14px" viewBox="0 0 12 14" version="1.1" xmlns="http://www.w3.org/2000/svg" xmlns:xlink="http://www.w3.org/1999/xlink">
    <!-- Generator: Sketch 49.3 (51167) - http://www.bohemiancoding.com/sketch -->
    <title>renshu</title>
    <desc>Created with Sketch.</desc>
    <defs></defs>
    <g id="适配M页2" stroke="none" stroke-width="1" fill="none" fill-rule="evenodd">
        <g id="首页-X尺寸-2" transform="translate(-220.000000, -1309.000000)" fill="#D0D0D0" fill-rule="nonzero">
            <g id="renshu" transform="translate(220.000000, 1309.000000)">
                <path d="M0.941010309,13.9945217 C0.673584064,13.9935574 0.419255094,13.8804623 0.241789806,13.6835921 C0.0643245176,13.4867219 -0.0194486607,13.2247451 0.0114742268,12.9633457 C0.000859318,10.9910335 0.961155954,9.13568824 2.58852062,7.98435217 C2.85549227,7.80091156 3.13511079,7.63597269 3.42535052,7.49073043 C3.02083298,7.16980386 2.68046362,6.77767626 2.42158763,6.33433043 C1.9762313,5.57126439 1.78121165,4.69147289 1.86318557,3.81521304 C2.02397632,1.90327299 3.48757349,0.344939967 5.4118299,0.0368717391 C5.60682113,0.0134020604 5.8030329,0.00109583523 5.99947423,1.52173913e-05 C6.53914752,-0.00140046058 7.07362016,0.103789951 7.5712268,0.309354348 C8.22287109,0.58324525 8.79418047,1.01379691 9.23273196,1.56150217 C9.6770866,2.11940416 9.97279392,2.77769176 10.0930052,3.47659565 C10.2211919,4.238189 10.1479818,5.01943198 9.88042268,5.74511304 C9.63548691,6.41314646 9.21153996,7.00357136 8.65346907,7.45387391 C9.14275798,7.67486042 9.58856654,7.97910267 9.97037629,8.35259783 L9.99893814,8.37464783 C10.6048749,8.93708866 11.0862247,9.61662994 11.4128196,10.3706826 C11.7842102,11.1863934 11.9806525,12.0687134 11.9898711,12.9625087 C11.9987877,13.2485063 11.8830164,13.5246092 11.6717474,13.7212022 C11.4597208,13.9049719 11.1845418,14.0024 10.9021392,13.9936848 L0.941010309,13.9945217 Z M0.928360825,13.0811739 L10.899232,13.0811739 C11.0841031,13.0811739 11.0841031,13.029663 11.0841031,12.9633457 C11.0629573,11.4958854 10.459253,10.0947954 9.40206186,9.05962826 L9.37280412,9.03756304 C8.90729241,8.56086047 8.31063406,8.22806943 7.65587629,8.07993261 C7.63610774,8.07873824 7.616764,8.07377137 7.59892268,8.0653087 C7.11186176,8.24973672 6.59383994,8.34217272 6.07198454,8.33777609 C5.51372443,8.33341685 4.95950248,8.24417878 4.4289433,8.07322174 C3.95605689,8.22804893 3.50931222,8.45148903 3.10348454,8.73615217 C1.72132093,9.71355866 0.905552363,11.2889747 0.914335052,12.9638478 C0.912792655,13.0036071 0.91758256,13.043359 0.928530928,13.0816609 L0.928360825,13.0811739 Z M4.60201546,7.16658478 C5.07545107,7.33080613 5.57294862,7.4178935 6.07489175,7.42441304 C6.59231531,7.42930362 7.10321,7.31050266 7.56368041,7.07821739 C8.24517913,6.72885738 8.76829549,6.14013208 9.02921134,5.42888043 C9.24328502,4.85449805 9.30221622,4.2352766 9.20024227,3.63176739 C9.1050523,3.08611086 8.87349344,2.57230464 8.52640206,2.13658261 C7.95316374,1.39903318 7.07649827,0.950307656 6.13372349,0.911878346 C5.1909487,0.873449036 4.27957445,1.24929063 3.64631443,1.93766087 C2.64062533,3.00894479 2.45872677,4.59893514 3.19719588,5.86344348 C3.52380363,6.42523514 4.01255791,6.87895381 4.60150515,7.16708696 L4.60201546,7.16658478 Z" id="Shape"></path>
            </g>
        </g>
    </g>
</svg>
