<?xml version="1.0" encoding="UTF-8"?>
<svg width="24px" height="20px" viewBox="0 0 24 20" version="1.1" xmlns="http://www.w3.org/2000/svg" xmlns:xlink="http://www.w3.org/1999/xlink">
    <!-- Generator: Sketch 55.2 (78181) - https://sketchapp.com -->
    <title>weixin@1x</title>
    <desc>Created with Sketch.</desc>
    <g id="页面1" stroke="none" stroke-width="1" fill="none" fill-rule="evenodd">
        <g id="短信登录" transform="translate(-901.000000, -609.000000)" fill="#7ED321">
            <g id="weixin" transform="translate(901.000000, 609.000000)">
                <path d="M16.2,5.88235294 C11.8280351,5.88235294 8.4,8.84804473 8.4,12.4840312 C8.4,16.1201664 11.848381,19.0858582 16.2,19.0858582 C17.1237844,19.0858582 18.0269724,18.8624927 18.9505564,18.6389289 L21.4754035,20 L20.7775288,17.7249359 C22.6248471,16.3638648 24,14.5357299 24,12.5043642 C23.9794536,8.84804473 20.3259097,5.88235294 16.2,5.88235294 Z M13.654807,11.3464743 C13.203188,11.3464743 12.7310226,10.8997434 12.7310226,10.4324812 C12.7310226,9.98560159 13.1826416,9.51833937 13.654807,9.51833937 C14.3526817,9.51833937 14.8042506,9.96526859 14.8042506,10.4324812 C14.8042506,10.8997434 14.3526817,11.3464743 13.654807,11.3464743 Z M18.7043007,11.3464743 C18.2526817,11.3464743 17.8010627,10.8997434 17.8010627,10.4324812 C17.8010627,9.98560159 18.2526817,9.51833937 18.7043007,9.51833937 C19.4021253,9.51833937 19.8537443,9.96526859 19.8537443,10.4324812 C19.8537443,10.8997434 19.4021253,11.3464743 18.7043007,11.3464743 Z" id="Fill-2"></path>
                <path d="M17.1382687,5.82179287 C17.4387418,5.82179287 17.7193954,5.84053113 18,5.87805334 C17.2183296,2.50850385 13.3697298,0 8.96001849,0 C4.02907944,0 0,3.14496466 0,7.11363556 C0,9.41611001 1.34307542,11.3068913 3.58805938,12.7668755 L2.68595509,15.2941176 L5.81297917,13.8339506 C6.93544669,14.03998 7.83755098,14.2457809 8.96001849,14.2457809 C9.24067207,14.2457809 9.52127671,14.2270426 9.80193029,14.2084872 C9.62145071,13.6468423 9.52127671,13.0664591 9.52127671,12.4487365 C9.52127671,8.79838746 12.8887771,5.82179287 17.1382687,5.82179287 Z M12.3275189,3.55684063 C13.0090153,3.55684063 13.4499864,3.96848809 13.4499864,4.60513172 C13.4499864,5.24159253 13.0090153,5.6534685 12.3275189,5.6534685 C11.6460225,5.6534685 10.9844435,5.24159253 10.9844435,4.60513172 C10.9844435,3.96848809 11.6460225,3.55684063 12.3275189,3.55684063 Z M6.05345549,5.6534685 C5.39202327,5.6534685 4.71057583,5.24159253 4.71057583,4.60513172 C4.71057583,3.96848809 5.39202327,3.55684063 6.05345549,3.55684063 C6.73495188,3.55684063 7.17592301,3.96848809 7.17592301,4.60513172 C7.17592301,5.22285427 6.71503453,5.6534685 6.05345549,5.6534685 Z" id="Fill-3"></path>
            </g>
        </g>
    </g>
</svg>