<?xml version="1.0" encoding="UTF-8"?>
<svg width="20px" height="20px" viewBox="0 0 20 20" version="1.1" xmlns="http://www.w3.org/2000/svg" xmlns:xlink="http://www.w3.org/1999/xlink">
    <!-- Generator: Sketch 48.2 (47327) - http://www.bohemiancoding.com/sketch -->
    <title>Combined Shape</title>
    <desc>Created with Sketch.</desc>
    <defs></defs>
    <g id="列表2" stroke="none" stroke-width="1" fill="none" fill-rule="evenodd" transform="translate(-498.000000, -354.000000)">
        <path d="M508,372.5 C512.69442,372.5 516.5,368.69442 516.5,364 C516.5,359.30558 512.69442,355.5 508,355.5 C503.30558,355.5 499.5,359.30558 499.5,364 C499.5,368.69442 503.30558,372.5 508,372.5 Z M508,374 C502.477153,374 498,369.522847 498,364 C498,358.477153 502.477153,354 508,354 C513.522847,354 518,358.477153 518,364 C518,369.522847 513.522847,374 508,374 Z M504.21,360.004 L504.21,361.404 L507.486,361.404 L507.486,370 L509.124,370 L509.124,361.404 L512.4,361.404 L512.4,360.004 L504.21,360.004 Z" id="Combined-Shape" fill="#979797" fill-rule="nonzero"></path>
    </g>
</svg>
