<?xml version="1.0" encoding="UTF-8"?>
<svg width="10px" height="12px" viewBox="0 0 10 12" version="1.1" xmlns="http://www.w3.org/2000/svg" xmlns:xlink="http://www.w3.org/1999/xlink">
    <!-- Generator: Sketch 48.2 (47327) - http://www.bohemiancoding.com/sketch -->
    <title>Shape</title>
    <desc>Created with Sketch.</desc>
    <defs></defs>
    <g id="列表1" stroke="none" stroke-width="1" fill="none" fill-rule="evenodd" transform="translate(-1058.000000, -582.000000)">
        <path d="M1067.05743,586.731183 L1066.30563,586.731183 L1066.30563,585.277419 C1066.30563,583.453763 1064.79397,582 1062.90462,582 C1061.01616,582 1059.5036,583.453763 1059.5036,585.277419 L1059.5036,586.731183 L1058.7518,586.731183 C1058.3401,586.731183 1058,587.058065 1058,587.453763 L1058,593.277419 C1058,593.673118 1058.3401,594 1058.7518,594 L1067.05743,594 C1067.47808,594 1067.81818,593.673118 1067.81818,593.277419 L1067.81818,587.453763 C1067.81818,587.058065 1067.47808,586.731183 1067.05743,586.731183 Z M1065.16897,586.731183 L1060.64026,586.731183 L1060.64026,585.277419 C1060.64026,584.073118 1061.66056,583.092473 1062.90462,583.092473 C1064.15663,583.097211 1065.16898,584.074058 1065.16897,585.277419 L1065.16897,586.731183 Z" id="Shape" fill="#D0D0D0" fill-rule="nonzero"></path>
    </g>
</svg>