<?xml version="1.0" encoding="UTF-8"?>
<svg width="14px" height="18px" viewBox="0 0 14 18" version="1.1" xmlns="http://www.w3.org/2000/svg" xmlns:xlink="http://www.w3.org/1999/xlink">
    <!-- Generator: Sketch 55.2 (78181) - https://sketchapp.com -->
    <title>mima-4@1x</title>
    <desc>Created with Sketch.</desc>
    <defs>
        <polygon id="path-1" points="4.72349187e-17 0 14 0 14 18 4.72349187e-17 18"></polygon>
    </defs>
    <g id="页面1" stroke="none" stroke-width="1" fill="none" fill-rule="evenodd">
        <g id="注册独立复制-3" transform="translate(-1057.000000, -492.000000)">
            <g id="mima-4" transform="translate(1057.000000, 492.000000)">
                <mask id="mask-2" fill="white">
                    <use xlink:href="#path-1"></use>
                </mask>
                <g id="Clip-2"></g>
                <path d="M12.9229907,6.74996745 L12.3850568,6.74996745 L12.3850568,5.62446384 C12.3850568,2.51997408 9.97304905,0 6.99998962,0 C4.02703396,0 1.61500549,2.51997408 1.61500549,5.62549655 L1.61500549,6.74996745 L1.07698853,6.74996745 C0.793204602,6.74798991 0.520336242,6.86549949 0.318336043,7.07654653 C0.116315093,7.28761553 0.00186768213,7.57506137 0,7.87547105 L0,16.8754789 C0.004378677,17.5007538 0.486448187,18.0040807 1.07698853,17.9999751 L12.9229907,17.9999751 C13.2067954,18.0019274 13.479726,17.8844178 13.681664,17.6733707 C13.8836642,17.4623017 13.9982153,17.1748559 14,16.8744462 L14,7.87443834 C13.9956213,7.24916344 13.5136141,6.74585857 12.9229907,6.74996745 Z M2.69299011,5.62447089 C2.69299011,3.143623 4.62502427,1.12447089 6.99998962,1.12447089 C9.37505874,1.12447089 11.3079852,3.143623 11.3079852,5.62447089 L11.3079852,6.74996745 L2.69201477,6.74996745 L2.69201477,5.62447089 L2.69299011,5.62447089 Z M1.07698853,16.8744383 L12.9229907,16.8744383 L12.9229907,7.87443834 L1.07698853,7.87443834 L1.07698853,16.8744383 Z M6.99998962,10.0471571 C6.66804025,10.0471571 6.40004862,10.3044785 6.40004862,10.6231474 L6.40004862,14.0769799 C6.40004862,14.3946381 6.66804025,14.6519595 6.99998962,14.6519595 C7.332022,14.6519595 7.60001364,14.3957587 7.60001364,14.0769799 L7.60001364,10.6231474 C7.60001364,10.3054892 7.332022,10.0471571 6.99998962,10.0471571 Z" id="Fill-1" fill="#AAAAAA" mask="url(#mask-2)"></path>
            </g>
        </g>
    </g>
</svg>