<?xml version="1.0" encoding="UTF-8"?>
<svg width="20px" height="17px" viewBox="0 0 20 17" version="1.1" xmlns="http://www.w3.org/2000/svg" xmlns:xlink="http://www.w3.org/1999/xlink">
    <!-- Generator: Sketch 49.3 (51167) - http://www.bohemiancoding.com/sketch -->
    <title>刷新</title>
    <desc>Created with Sketch.</desc>
    <defs></defs>
    <g id="第二版" stroke="none" stroke-width="1" fill="none" fill-rule="evenodd">
        <g id="购买课程-2" transform="translate(-888.000000, -542.000000)" fill="#9B9B9B" fill-rule="nonzero">
            <path d="M901.632693,555.509775 C900.531566,556.282086 899.239904,556.666822 897.922933,556.651194 C897.748038,556.648352 897.576271,556.635565 897.40422,556.622779 C897.334547,556.615675 897.264873,556.604309 897.195484,556.594364 C897.058981,556.577315 896.927028,556.560266 896.79479,556.533273 C896.713741,556.519065 896.632693,556.496333 896.554772,556.477864 C896.425378,556.449449 896.297691,556.421034 896.171141,556.384095 C896.111421,556.361364 896.054544,556.342894 895.994824,556.318741 C895.848368,556.273278 895.703617,556.222131 895.56427,556.163881 C895.532988,556.149674 895.501706,556.138308 895.470424,556.125521 C895.306905,556.050222 895.145092,555.973503 894.98726,555.891384 C894.981572,555.887122 894.973041,555.884281 894.967353,555.880018 C894.435843,555.587631 893.951541,555.228469 893.525253,554.799691 C893.518144,554.792587 893.512456,554.784063 893.503924,554.776959 C893.371687,554.644831 893.245421,554.508724 893.125981,554.360968 C893.101809,554.331132 893.077636,554.301297 893.052042,554.265779 C892.186668,553.18403 891.665396,551.814157 891.665396,550.324942 L893.33358,550.324942 L890.666932,546.328697 L888,550.325226 L889.66534,550.325226 C889.66534,552.075573 890.213912,553.699757 891.141565,555.044057 C891.152941,555.063948 891.16005,555.085259 891.172847,555.102308 C891.268115,555.24154 891.375896,555.367701 891.478273,555.495567 C891.518087,555.542452 891.552212,555.590757 891.593448,555.643324 C891.74417,555.825178 891.907405,555.998224 892.072347,556.168712 C892.08941,556.185761 892.103629,556.199968 892.117848,556.215596 C892.676374,556.775082 893.30571,557.243356 893.991924,557.620988 C894.010408,557.630933 894.026049,557.639457 894.047378,557.650823 C894.244739,557.757378 894.448072,557.855125 894.652542,557.944631 C894.705153,557.967363 894.75492,557.990095 894.804687,558.011406 C894.982425,558.086705 895.162723,558.149217 895.344728,558.211445 C895.431464,558.241281 895.515357,558.269696 895.603231,558.29811 C895.762484,558.343574 895.924298,558.384775 896.089239,558.421714 C896.198726,558.447287 896.303663,558.475702 896.415994,558.495593 C896.461495,558.506958 896.504152,558.521166 896.549653,558.525428 C896.706063,558.553843 896.860767,558.56805 897.014333,558.58652 C897.071209,558.596465 897.126664,558.60641 897.182118,558.612093 C897.460528,558.639087 897.7378,558.656136 898.014788,558.656136 C899.706859,558.656136 901.360824,558.139272 902.778751,557.14561 C903.230634,556.82907 903.341542,556.204514 903.025879,555.755846 C902.707087,555.29979 902.084575,555.190393 901.632693,555.509775 Z M906.33011,550.325226 C906.33011,548.579142 905.788647,546.956378 904.86526,545.619182 C904.851041,545.59645 904.842509,545.572298 904.831134,545.552407 C904.711694,545.387602 904.589694,545.234447 904.463144,545.079586 C904.448925,545.062538 904.434706,545.042647 904.421909,545.022757 C903.572176,544.00068 902.510863,543.207057 901.310204,542.688773 C901.274656,542.674565 901.244796,542.658937 901.209248,542.64473 C901.016153,542.565169 900.819929,542.496973 900.619725,542.429062 C900.551473,542.40633 900.478956,542.380757 900.408145,542.359446 C900.234672,542.306879 900.061483,542.264257 899.885167,542.223055 C899.787055,542.201744 899.687806,542.176171 899.589694,542.156281 C899.541349,542.147756 899.49727,542.133549 899.446081,542.123604 C899.313844,542.102293 899.184734,542.089506 899.052497,542.073878 C898.960073,542.063933 898.871914,542.049726 898.779775,542.039781 C898.558241,542.01847 898.337846,542.009945 898.117734,542.005683 C898.077921,542.005683 898.038107,542 897.998294,542 C897.991184,542 897.984075,542.001421 897.976965,542.002841 C896.286316,542.004262 894.635195,542.514022 893.220111,543.506264 C892.768229,543.821383 892.65732,544.444518 892.975828,544.898869 C893.289785,545.348958 893.916278,545.459491 894.369583,545.141531 C895.462177,544.377743 896.738198,543.988746 898.046639,544.001532 C898.234331,544.002953 898.421738,544.011477 898.603742,544.029947 C898.660619,544.034209 898.714651,544.042734 898.771528,544.051258 C898.92225,544.069728 899.071266,544.089618 899.219145,544.120874 C899.28313,544.13224 899.348538,544.149289 899.409396,544.163496 C899.555853,544.196173 899.697759,544.230271 899.838528,544.272893 C899.885451,544.285679 899.928108,544.301307 899.970766,544.318356 C900.134285,544.370924 900.293254,544.426332 900.446821,544.491686 C900.463884,544.495948 900.479525,544.508735 900.495166,544.514418 C901.428791,544.914781 902.245535,545.530812 902.88511,546.303124 C902.886532,546.305965 902.889375,546.311648 902.895063,546.315911 C903.793141,547.409025 904.332897,548.804471 904.334319,550.324942 L902.664714,550.324942 L905.335912,554.322608 L908,550.324942 L906.33011,550.324942 L906.33011,550.325226 Z" id="刷新"></path>
        </g>
    </g>
</svg>