<?xml version="1.0" encoding="UTF-8"?>
<svg width="20px" height="20px" viewBox="0 0 20 20" version="1.1" xmlns="http://www.w3.org/2000/svg" xmlns:xlink="http://www.w3.org/1999/xlink">
    <!-- Generator: Sketch 48.2 (47327) - http://www.bohemiancoding.com/sketch -->
    <title>Combined Shape</title>
    <desc>Created with Sketch.</desc>
    <defs></defs>
    <g id="列表2" stroke="none" stroke-width="1" fill="none" fill-rule="evenodd" transform="translate(-498.000000, -301.000000)">
        <path d="M508,319.5 C512.69442,319.5 516.5,315.69442 516.5,311 C516.5,306.30558 512.69442,302.5 508,302.5 C503.30558,302.5 499.5,306.30558 499.5,311 C499.5,315.69442 503.30558,319.5 508,319.5 Z M508,321 C502.477153,321 498,316.522847 498,311 C498,305.477153 502.477153,301 508,301 C513.522847,301 518,305.477153 518,311 C518,316.522847 513.522847,321 508,321 Z M501.49,309.002 L501.49,314 L502.309,314 L502.309,312.082 L503.548,312.082 C504.766,312.082 505.375,311.564 505.375,310.535 C505.375,309.513 504.766,309.002 503.562,309.002 L501.49,309.002 Z M502.309,309.702 L503.499,309.702 C503.856,309.702 504.122,309.765 504.29,309.898 C504.458,310.024 504.549,310.234 504.549,310.535 C504.549,310.836 504.465,311.053 504.297,311.186 C504.129,311.312 503.863,311.382 503.499,311.382 L502.309,311.382 L502.309,309.702 Z M506.075,309.002 L506.075,314 L507.902,314 C508.714,314 509.323,313.776 509.743,313.328 C510.142,312.901 510.345,312.292 510.345,311.501 C510.345,310.703 510.142,310.094 509.743,309.674 C509.323,309.226 508.714,309.002 507.902,309.002 L506.075,309.002 Z M506.894,309.702 L507.748,309.702 C508.371,309.702 508.826,309.842 509.113,310.129 C509.393,310.409 509.533,310.871 509.533,311.501 C509.533,312.117 509.393,312.572 509.113,312.866 C508.826,313.153 508.371,313.3 507.748,313.3 L506.894,313.3 L506.894,309.702 Z M511.115,309.002 L511.115,314 L511.934,314 L511.934,311.788 L514.377,311.788 L514.377,311.088 L511.934,311.088 L511.934,309.702 L514.524,309.702 L514.524,309.002 L511.115,309.002 Z" id="Combined-Shape" fill="#979797" fill-rule="nonzero"></path>
    </g>
</svg>
