<?xml version="1.0" encoding="UTF-8"?>
<svg width="12px" height="18px" viewBox="0 0 12 18" version="1.1" xmlns="http://www.w3.org/2000/svg" xmlns:xlink="http://www.w3.org/1999/xlink">
    <!-- Generator: Sketch 55.2 (78181) - https://sketchapp.com -->
    <title>shouji@1x</title>
    <desc>Created with Sketch.</desc>
    <g id="页面1" stroke="none" stroke-width="1" fill="none" fill-rule="evenodd">
        <g id="注册独立复制-3" transform="translate(-1056.000000, -336.000000)" fill="#AAAAAA">
            <g id="shouji" transform="translate(1056.000000, 336.000000)">
                <path d="M5.9999641,15 C5.4485214,15 5,15.4485214 5,15.9999641 C5,16.5514068 5.4485214,17 5.9999641,17 C6.55150253,17 7,16.5514068 7,15.9999641 C7,15.4485214 6.55150253,15 5.9999641,15 Z" id="Fill-1"></path>
                <path d="M10.598028,0 L1.4019943,0 C0.629168792,0 0,0.621068541 0,1.38394429 L0,16.6160557 C0,17.3789315 0.629168792,18 1.4019943,18 L10.598028,18 C11.3707644,18 12,17.3789315 12,16.6160557 L12,1.38394429 C12,0.621068541 11.3707644,0 10.598028,0 Z M1.4019943,0.922636852 L10.598028,0.922636852 C10.8555994,0.922636852 11.065352,1.129689 11.065352,1.38394429 L11.065352,12.7950843 L0.934648028,12.7950843 L0.934648028,1.38394429 C0.934648028,1.129689 1.14440064,0.922636852 1.4019943,0.922636852 Z M10.598028,17.0796046 L1.4019943,17.0796046 C1.14440064,17.0796046 0.934648028,16.8726404 0.934648028,16.6182972 L0.934648028,13.7987445 L11.065352,13.7987445 L11.065352,16.6160557 C11.065352,16.8726404 10.8555994,17.0796046 10.598028,17.0796046 Z" id="Fill-2"></path>
            </g>
        </g>
    </g>
</svg>