<?xml version="1.0" encoding="UTF-8"?>
<svg width="24px" height="20px" viewBox="0 0 24 20" version="1.1" xmlns="http://www.w3.org/2000/svg" xmlns:xlink="http://www.w3.org/1999/xlink">
    <!-- Generator: Sketch 49.3 (51167) - http://www.bohemiancoding.com/sketch -->
    <title>微信</title>
    <desc>Created with Sketch.</desc>
    <defs></defs>
    <g id="第二版" stroke="none" stroke-width="1" fill="none" fill-rule="evenodd">
        <g id="列表页" transform="translate(-1833.000000, -614.000000)" fill="#FFFFFF" fill-rule="nonzero">
            <g id="微信" transform="translate(1833.000000, 614.000000)">
                <path d="M16.2319085,6.06017225 C16.5070398,6.06017225 16.7788144,6.08087273 17.0490306,6.11161722 C16.3148675,2.61789091 12.6592774,0.0226143541 8.48651239,0.0226143541 C3.82174782,0.0226143541 0.000119882927,3.27136459 0.000119882927,7.39663923 C0.000119882927,9.77768421 1.27135844,11.7330833 3.3964032,13.2498526 L2.54763208,15.8581129 L5.51365557,14.3381589 C6.57569842,14.5531254 7.42710697,14.7734813 8.48651239,14.7734813 C8.75265249,14.7734813 9.01687446,14.7601301 9.27893854,14.7393072 C9.11290068,14.1595713 9.01675458,13.5523981 9.01675458,12.9225646 C9.01687446,9.13449952 12.2004855,6.06029474 16.2319085,6.06017225 Z M11.6686848,3.70950431 C12.3075409,3.70950431 12.7307276,4.13882488 12.7307276,4.79144115 C12.7307276,5.44124019 12.3075409,5.87656268 11.6686848,5.87656268 C11.032586,5.87656268 10.3945691,5.44124019 10.3945691,4.79144115 C10.3945691,4.13870239 11.032586,3.70950431 11.6686848,3.70950431 Z M5.72980449,5.87656268 C5.09370568,5.87656268 4.45149284,5.44124019 4.45149284,4.79144115 C4.45149284,4.13882488 5.09370568,3.70950431 5.72980449,3.70950431 C6.36578341,3.70950431 6.78909003,4.13882488 6.78909003,4.79144115 C6.78909003,5.44124019 6.36578341,5.87656268 5.72980449,5.87656268 Z" id="Shape"></path>
                <path d="M23.9767052,12.8180823 C23.9767052,9.35167081 20.5819804,6.52599426 16.7685045,6.52599426 C12.7307276,6.52599426 9.55059325,9.35167081 9.55059325,12.8180823 C9.55059325,16.2908632 12.7307276,19.1100478 16.7685045,19.1100478 C17.6136791,19.1100478 18.4666462,18.8921416 19.3151775,18.6747254 L21.6425847,19.9772632 L21.0044478,17.8105722 C22.7081041,16.5048498 23.9767052,14.7734813 23.9767052,12.8180823 Z M14.4288693,11.7332057 C14.0061621,11.7332057 13.5794988,11.3038852 13.5794988,10.8657455 C13.5794988,10.4337301 14.0061621,9.99877512 14.4288693,9.99877512 C15.0703628,9.99877512 15.4909122,10.4337301 15.4909122,10.8657455 C15.491032,11.3040077 15.0703628,11.7332057 14.4288693,11.7332057 Z M19.0965111,11.7332057 C18.6765612,11.7332057 18.2532546,11.3038852 18.2532546,10.8657455 C18.2532546,10.4337301 18.6765612,9.99877512 19.0965111,9.99877512 C19.73249,9.99877512 20.158434,10.4337301 20.158434,10.8657455 C20.1585539,11.3040077 19.73249,11.7332057 19.0965111,11.7332057 Z" id="Shape"></path>
            </g>
        </g>
    </g>
</svg>