<?xml version="1.0" encoding="UTF-8"?>
<svg width="38px" height="32px" viewBox="0 0 38 32" version="1.1" xmlns="http://www.w3.org/2000/svg" xmlns:xlink="http://www.w3.org/1999/xlink">
    <!-- Generator: Sketch 49.3 (51167) - http://www.bohemiancoding.com/sketch -->
    <title>icon4</title>
    <desc>Created with Sketch.</desc>
    <defs></defs>
    <g id="Page-1" stroke="none" stroke-width="1" fill="none" fill-rule="evenodd">
        <g id="学位课程2" transform="translate(-780.000000, -267.000000)" fill="#4BB6DB" fill-rule="nonzero">
            <g id="icon4" transform="translate(780.000000, 267.000000)">
                <path d="M18.65625,12.9182809 C13.8417339,12.9182809 9.29852756,12.3335432 5.87015799,11.2721706 C2.03235722,10.0830401 0,8.41727471 0,6.46159734 C0,4.50591997 2.02742431,2.84015457 5.87015799,1.65102411 C9.29359466,0.589651469 13.836801,0 18.65625,0 C23.475699,0 28.0139724,0.584737706 31.442342,1.64611035 C35.2801428,2.83524081 37.3125,4.50100621 37.3125,6.45668358 C37.3125,8.41236095 35.2850757,10.0781264 31.442342,11.2672568 C28.0139724,12.3335432 23.4707661,12.9182809 18.65625,12.9182809 Z M18.65625,1.9655049 C14.0341172,1.9655049 9.69809294,2.52076003 6.45224088,3.52316752 C3.14226104,4.55014383 1.96822944,5.74418806 1.96822944,6.45668358 C1.96822944,7.16917911 3.14226104,8.36322333 6.45224088,9.39019964 C9.69809294,10.3975209 14.0291843,10.9478623 18.65625,10.9478623 C23.2833157,10.9478623 27.6144071,10.3926071 30.8602591,9.39019964 C34.170239,8.36322333 35.3442706,7.16917911 35.3442706,6.45668358 C35.3442706,5.74418806 34.170239,4.55014383 30.8602591,3.52316752 C27.6094742,2.52076003 23.2783828,1.9655049 18.65625,1.9655049 Z M1.40587817,14.7462005 C1.69691962,14.7462005 1.95836363,14.9181822 2.07675337,15.1786116 C2.50098328,16.1122264 4.15843965,17.1048064 6.61009387,17.8615257 C9.87567755,18.8737608 14.2314334,19.4290159 18.8782308,19.4290159 C23.5250281,19.4290159 27.880784,18.8737608 31.1463677,17.8615257 C33.4599005,17.1441164 35.0630949,16.2203291 35.5958488,15.3358519 C35.7339701,15.1049051 35.9756825,14.962406 36.2469923,14.962406 L36.2963214,14.962406 C36.8685385,14.9673198 37.2187748,15.5815401 36.9326662,16.07783 C36.1927304,17.3455807 34.3872868,18.4511772 31.6051279,19.3110856 C28.19649,20.3675445 23.6779482,20.9473684 18.8831637,20.9473684 C14.0883792,20.9473684 9.56983739,20.3675445 6.16119943,19.3110856 C3.15705976,18.3823845 1.29242134,17.1686853 0.675808104,15.7731768 C0.463693152,15.2867143 0.828728186,14.7412867 1.36148202,14.7462005 L1.40587817,14.7462005 Z" id="Shape"></path>
                <path d="M19.0468364,20.9473684 C14.2597802,20.9473684 9.74711004,20.3762685 6.33688371,19.3348511 C3.26963992,18.3990151 1.38323598,17.1944262 0.736468923,15.7450803 C0.60417566,15.4475324 0.633574163,15.1115913 0.81486493,14.8380392 C1.00105545,14.5644872 1.30973973,14.4013158 1.64292276,14.4013158 L1.69192026,14.4013158 C2.0741008,14.4013158 2.42198308,14.6268763 2.5787751,14.9676165 C2.97565489,15.8170676 4.60237204,16.7481045 6.92975352,17.45838 C10.1488896,18.4422075 14.4508705,18.9797133 19.0419367,18.9797133 C23.6330029,18.9797133 27.9349838,18.4374084 31.1541198,17.45838 C33.3394085,16.7912969 34.9367272,15.9082517 35.431602,15.0971938 C35.6128928,14.799646 35.9362763,14.6172779 36.2841586,14.6172779 L36.3380558,14.6172779 C36.6908379,14.6172779 37.0093216,14.799646 37.1808129,15.101993 C37.3572039,15.40434 37.3572039,15.7642769 37.1759132,16.0666239 C36.4017526,17.3719951 34.5741457,18.4710025 31.7420899,19.3348511 C28.3465628,20.3762685 23.8338926,20.9473684 19.0468364,20.9473684 Z M1.63802301,14.8860308 C1.47143149,14.8860308 1.31463948,14.9676165 1.22644397,15.1067921 C1.13334871,15.2459677 1.11864946,15.4091391 1.18724597,15.5579131 C1.76541652,16.8536859 3.5979232,18.0054841 6.48387622,18.8837301 C9.84510505,19.9107501 14.3087777,20.4722517 19.0468364,20.4722517 C23.7848951,20.4722517 28.2485678,19.905951 31.6097966,18.8837301 C34.2801606,18.0678731 36.0636698,17.0168573 36.7643341,15.8362643 C36.8525296,15.6826912 36.8574294,15.5003232 36.7692339,15.3515492 C36.6810384,15.2027753 36.5242464,15.1115913 36.3478553,15.1115913 L36.2988578,15.1115913 C36.1224668,15.1067921 35.960775,15.2027753 35.8676798,15.3611476 C35.3042085,16.2873852 33.6431931,17.2232212 31.3109119,17.9334967 C28.0427783,18.9269226 23.6917999,19.4788258 19.0517362,19.4788258 C14.4116725,19.4788258 10.0606941,18.9317217 6.7925605,17.9334967 C4.29368776,17.1704304 2.5983741,16.1674062 2.14269731,15.1835787 C2.0643013,15.010809 1.88791028,14.9004283 1.69682001,14.9004283 L1.63802301,14.8860308 C1.64292276,14.8860308 1.64292276,14.8860308 1.63802301,14.8860308 Z" id="Shape"></path>
                <path d="M1.45114056,24.8750348 C1.74408351,24.8750348 2.00723564,25.0565805 2.12639888,25.3314925 C2.55340046,26.317026 4.2216857,27.3648039 6.68935762,28.1636048 C9.97627676,29.2321307 14.3604907,29.8182638 19.0376475,29.8182638 C23.7148043,29.8182638 28.0990182,29.2321307 31.3859374,28.1636048 C33.7145855,27.4063 35.3282543,26.4311405 35.8644888,25.4974771 C36.0035126,25.2536872 36.2468042,25.1032636 36.5198866,25.1032636 L36.5695379,25.1032636 C37.1454936,25.1084506 37.4980181,25.756828 37.2100403,26.2807169 C36.4652701,27.6189678 34.6480308,28.786047 31.8476949,29.6937753 C28.4167868,30.8089844 23.8687235,31.4210526 19.0426126,31.4210526 C14.2165017,31.4210526 9.66843841,30.8089844 6.23753037,29.6937753 C3.21376336,28.7134288 1.33694247,27.4322351 0.716300636,25.9591217 C0.502799846,25.4456069 0.87021981,24.8698478 1.40645435,24.8750348 L1.45114056,24.8750348 Z" id="Shape"></path>
                <path d="M19.0468364,31.4210526 C14.2597802,31.4210526 9.74711004,30.8499527 6.33688371,29.8085353 C3.26963992,28.8726993 1.38323598,27.6681104 0.736468923,26.2187645 C0.60417566,25.9212166 0.633574163,25.5852755 0.81486493,25.3117235 C1.00105545,25.0381714 1.30973973,24.875 1.64292276,24.875 L1.69192026,24.875 C2.0741008,24.875 2.42198308,25.1005605 2.5787751,25.4413007 C2.97565489,26.2907519 4.60237204,27.2217887 6.92975352,27.9320642 C10.1488896,28.9158917 14.4508705,29.4533975 19.0419367,29.4533975 C23.6330029,29.4533975 27.9349838,28.9110926 31.1541198,27.9320642 C33.3394085,27.2649811 34.9367272,26.3819359 35.431602,25.570878 C35.6128928,25.2733302 35.9362763,25.0909621 36.2841586,25.0909621 L36.3380558,25.0909621 C36.6908379,25.0909621 37.0093216,25.2733302 37.1808129,25.5756772 C37.3572039,25.8780242 37.3572039,26.2379611 37.1759132,26.5403081 C36.4017526,27.8456793 34.5741457,28.9446867 31.7420899,29.8085353 C28.3465628,30.8451536 23.8338926,31.4210526 19.0468364,31.4210526 Z M1.63802301,25.359715 C1.47143149,25.359715 1.31463948,25.4413007 1.22644397,25.5804763 C1.13334871,25.719652 1.11864946,25.8828234 1.18724597,26.0315973 C1.76541652,27.3273702 3.5979232,28.4791683 6.48387622,29.3574143 C9.84510505,30.3844343 14.3087777,30.9459359 19.0468364,30.9459359 C23.7848951,30.9459359 28.2485678,30.3796352 31.6097966,29.3574143 C34.2801606,28.5415573 36.0636698,27.4905416 36.7643341,26.3099485 C36.8525296,26.1563754 36.8574294,25.9740074 36.7692339,25.8252334 C36.6810384,25.6764595 36.5242464,25.5852755 36.3478553,25.5852755 L36.2988578,25.5852755 L36.2939581,25.5852755 C36.1175671,25.5852755 35.960775,25.6764595 35.86278,25.8348318 C35.2993087,26.7610694 33.6382933,27.6969054 31.3060121,28.4071809 C28.0378785,29.4006068 23.6869001,29.95251 19.0468364,29.95251 C14.4067727,29.95251 10.0557943,29.4054059 6.78766075,28.4071809 C4.28878801,27.6441146 2.59347435,26.6410904 2.13779756,25.6572629 C2.05940155,25.4844932 1.88301053,25.3741125 1.69192026,25.3741125 L1.63802301,25.359715 C1.64292276,25.359715 1.64292276,25.359715 1.63802301,25.359715 Z" id="Shape"></path>
            </g>
        </g>
    </g>
</svg>