<?xml version="1.0" encoding="UTF-8"?>
<svg width="38px" height="38px" viewBox="0 0 38 38" version="1.1" xmlns="http://www.w3.org/2000/svg" xmlns:xlink="http://www.w3.org/1999/xlink">
    <!-- Generator: Sketch 49.3 (51167) - http://www.bohemiancoding.com/sketch -->
    <title>icon1</title>
    <desc>Created with Sketch.</desc>
    <defs></defs>
    <g id="Page-1" stroke="none" stroke-width="1" fill="none" fill-rule="evenodd">
        <g id="学位课程2" transform="translate(-400.000000, -145.000000)" fill="#4BB6DB" fill-rule="nonzero">
            <path d="M419,145 C408.516374,145 400,153.516374 400,164 C400,174.483626 408.516374,183 419,183 C429.483626,183 438,174.483626 438,164 C438,153.516374 429.483626,145 419,145 Z M419,146.652174 C428.590724,146.652174 436.347826,154.409276 436.347826,164 C436.347826,173.590724 428.590724,181.347826 419,181.347826 C409.409276,181.347826 401.652174,173.590724 401.652174,164 C401.652174,154.409276 409.409276,146.652174 419,146.652174 Z M418.987092,149.119141 C418.531492,149.126262 418.167674,149.500908 418.173913,149.956522 L418.173913,161.665336 C417.184377,162.01519 416.522528,162.950439 416.521739,164 C416.522494,164.369207 416.605732,164.73358 416.76537,165.066491 L411.807235,170.024627 C411.591428,170.231823 411.504495,170.539499 411.579963,170.828995 C411.655432,171.118491 411.881509,171.344568 412.171005,171.420037 C412.460501,171.495505 412.768177,171.408572 412.975373,171.192765 L417.933509,166.23463 C418.26642,166.394268 418.630793,166.477506 419,166.478261 C420.368706,166.478261 421.478261,165.368706 421.478261,164 C421.476789,162.951031 420.815066,162.016605 419.826087,161.66695 L419.826087,149.956522 C419.829145,149.73323 419.74168,149.518211 419.583622,149.360457 C419.425565,149.202704 419.210378,149.115653 418.987092,149.119141 Z" id="icon1"></path>
        </g>
    </g>
</svg>