<?xml version="1.0" encoding="UTF-8"?>
<svg width="24px" height="24px" viewBox="0 0 24 24" version="1.1" xmlns="http://www.w3.org/2000/svg" xmlns:xlink="http://www.w3.org/1999/xlink">
    <!-- Generator: Sketch 49.3 (51167) - http://www.bohemiancoding.com/sketch -->
    <title>icon5</title>
    <desc>Created with Sketch.</desc>
    <defs></defs>
    <g id="Page-1" stroke="none" stroke-width="1" fill="none" fill-rule="evenodd">
        <g id="学位课程2" transform="translate(-1257.000000, -119.000000)" fill="#4BB6DB">
            <g id="Group" transform="translate(1257.000000, 119.000000)">
                <path d="M0.965140964,7.38263984 C0.362457328,6.6055901 0,5.62884888 0,4.56318066 C0,2.04253076 2.01475445,0.000121319242 4.4999168,0.000121319242 C5.55049845,0.000121319242 6.51394513,0.367597304 7.27988584,0.978439688 C4.44811989,2.2086168 2.17885867,4.51125602 0.965140964,7.38263984 M16.4999773,13.3118752 L12.0000605,13.3118752 C11.3780135,13.3118752 10.8750511,12.8000293 10.8750511,12.1706251 L10.8750511,6.08537319 C10.8750511,5.45427049 11.3780135,4.94412308 12.0000605,4.94412308 C12.6219865,4.94412308 13.12507,5.45427049 13.12507,6.08537319 L13.12507,11.0294963 L16.4999773,11.0294963 C17.1220243,11.0294963 17.6251078,11.5396437 17.6251078,12.1706251 C17.6249868,12.8000293 17.1220243,13.3118752 16.4999773,13.3118752 M12.0000605,3.42205186 C7.23631835,3.42205186 3.37502836,7.33896492 3.37502836,12.1706251 C3.37502836,17.000708 7.23631835,20.9176211 12.0000605,20.9176211 C16.7636817,20.9176211 20.6249716,17.000708 20.6249716,12.1706251 C20.6249716,7.33896492 16.7636817,3.42205186 12.0000605,3.42205186 M22.8749905,12.1706251 C22.8749905,15.1008487 21.7407835,17.755799 19.9025984,19.7312402 L21.4244351,21.2734504 C21.6253297,21.478116 21.7499811,21.7600619 21.7499811,22.0723376 C21.7499811,22.6948267 21.2519805,23.2 20.6375578,23.2 C20.330407,23.2 20.0525432,23.0741919 19.8508015,22.8694051 L18.2168995,21.2130335 C16.4539894,22.4616511 14.3136153,23.2 12.0000605,23.2 C9.69062038,23.2 7.55436104,22.4649267 5.7932662,21.219706 L4.17110326,22.8660081 C3.96682013,23.0724935 3.68556776,23.2 3.37502836,23.2 C2.75394956,23.2 2.25001891,22.6881541 2.25001891,22.0587499 C2.25001891,21.7433199 2.37648566,21.457977 2.57895347,21.251613 L4.088204,19.7210494 C2.25582791,17.747428 1.12500945,15.0958746 1.12500945,12.1705037 C1.12500945,6.07857931 5.99416075,1.14125011 12.0000605,1.14125011 C18.0059603,1.14125011 22.8749905,6.07857931 22.8749905,12.1706251 M23.0549485,7.22820045 C21.8672503,4.41723361 19.6449451,2.16336473 16.8724794,0.958300694 C17.6225663,0.359226276 18.5666497,0 19.5947215,0 C22.0269977,0 24,2.0005543 24,4.46745977 C24,5.51141185 23.645046,6.46801408 23.0549485,7.22820045" id="icon5"></path>
            </g>
        </g>
    </g>
</svg>