<?xml version="1.0" encoding="UTF-8"?>
<svg width="34px" height="45px" viewBox="0 0 34 45" version="1.1" xmlns="http://www.w3.org/2000/svg" xmlns:xlink="http://www.w3.org/1999/xlink">
    <!-- Generator: Sketch 49.3 (51167) - http://www.bohemiancoding.com/sketch -->
    <title>icon3</title>
    <desc>Created with Sketch.</desc>
    <defs></defs>
    <g id="Page-1" stroke="none" stroke-width="1" fill="none" fill-rule="evenodd">
        <g id="学位课程2" transform="translate(-402.000000, -255.000000)" fill="#4BB6DB" fill-rule="nonzero" stroke="#4BB6DB">
            <g id="icon3" transform="translate(403.000000, 256.000000)">
                <path d="M0.581544203,32.569631 L2.03713399,32.569631 L2.03713399,42.9943282 L0.581544203,42.9943282 L0.581544203,32.569631 Z M9.43843799,26.2399454 L10.8940278,26.2399454 L10.8940278,42.9943282 L9.43843799,42.9943282 L9.43843799,26.2399454 Z M26.8315024,17.6812576 L28.2870922,17.6812576 L28.2870922,43 L26.8315024,43 L26.8315024,17.6812576 Z M18.1078321,28.7468639 L19.5634219,28.7468639 L19.5634219,43 L18.1078321,43 L18.1078321,28.7468639 Z M9.6358061,11.6465036 L0.443386528,16.1158515 C0.0733213276,16.2973479 -0.0993757658,16.7851194 0.0585187196,17.2161732 C0.176939584,17.5337919 0.448320731,17.7266317 0.729570283,17.7266317 C0.823320133,17.7266317 0.922004187,17.7039447 1.01081983,17.6585706 L9.84304261,13.3650473 L18.640726,14.6582089 L31.7509025,1.46569214 C32.0518888,1.15941703 32.0864282,0.631943235 31.8199813,0.285965797 C31.5535344,-0.0656834023 31.0946535,-0.0940422087 30.7936671,0.206561139 L18.1769109,12.9056346 L9.6358061,11.6465036 Z" id="Shape"></path>
            </g>
        </g>
    </g>
</svg>