<?xml version="1.0" encoding="UTF-8"?>
<svg width="38px" height="38px" viewBox="0 0 38 38" version="1.1" xmlns="http://www.w3.org/2000/svg" xmlns:xlink="http://www.w3.org/1999/xlink">
    <!-- Generator: Sketch 49.3 (51167) - http://www.bohemiancoding.com/sketch -->
    <title>icon2</title>
    <desc>Created with Sketch.</desc>
    <defs></defs>
    <g id="Page-1" stroke="none" stroke-width="1" fill="none" fill-rule="evenodd">
        <g id="学位课程2" transform="translate(-780.000000, -145.000000)" fill="#4BB6DB" fill-rule="nonzero">
            <g id="icon2" transform="translate(780.000000, 145.000000)">
                <path d="M25.2020288,10.1243714 L19.0000213,16.3206933 L12.7979457,10.1243714 C12.5159265,9.84264618 12.0587,9.84268018 11.7766808,10.1244053 C11.4947296,10.4061305 11.4947296,10.8629353 11.7766808,11.1446944 L17.2566265,16.6195524 L13.5600918,16.6195524 C13.1612565,16.6195524 12.837996,16.9425828 12.837996,17.3409824 C12.837996,17.7393819 13.1612905,18.0624123 13.5600578,18.0624123 L18.2899371,18.0624123 L18.2899371,21.0924792 L13.9572939,21.0924792 C13.5584585,21.0924792 13.235164,21.4155435 13.235164,21.8139431 C13.235164,22.2123427 13.5584925,22.5353391 13.9572939,22.5353391 L18.2899711,22.5353391 L18.2899711,27.0083338 C18.2899711,27.4066994 18.6132997,27.7297297 19.012067,27.7297297 C19.4108343,27.7297297 19.7341628,27.4066994 19.7341628,27.0083338 L19.7341628,22.535373 L24.066806,22.535373 C24.4656074,22.535373 24.7889359,22.2123087 24.7889359,21.8139431 C24.7889359,21.4155775 24.4656074,21.0924792 24.066806,21.0924792 L19.7341628,21.0924792 L19.7341628,18.0624123 L24.4639741,18.0624123 C24.8627754,18.0624123 25.1860699,17.7393819 25.1860699,17.3409824 C25.1860699,16.9425828 24.8627414,16.6195524 24.4640081,16.6195524 L20.743348,16.6195524 L26.2232937,11.1446605 C26.5052789,10.8629013 26.5052789,10.4060965 26.2232937,10.1243374 C25.9412064,9.84261219 25.4841161,9.84261219 25.2020288,10.1243374 L25.2020288,10.1243714 Z" id="Shape"></path>
                <path d="M19,0 C8.52335296,0 0,8.5233625 0,18.9999787 C0,29.4766375 8.52335296,38 19,38 C29.476647,38 38,29.4766375 38,18.9999787 C38,8.5233625 29.476647,0 19,0 Z M19,36.1947619 C9.51875714,36.1947619 1.80523606,28.4812322 1.80523606,18.9999787 C1.80523606,9.51872526 9.51875714,1.80528061 19,1.80528061 C28.4812429,1.80528061 36.1947639,9.51876779 36.1947639,19.0000213 C36.1947639,28.4812747 28.4812003,36.1947619 19,36.1947619 Z" id="Shape"></path>
            </g>
        </g>
    </g>
</svg>