<?xml version="1.0" encoding="UTF-8"?>
<svg width="17px" height="18px" viewBox="0 0 17 18" version="1.1" xmlns="http://www.w3.org/2000/svg" xmlns:xlink="http://www.w3.org/1999/xlink">
    <!-- Generator: Sketch 49.3 (51167) - http://www.bohemiancoding.com/sketch -->
    <title>icon6</title>
    <desc>Created with Sketch.</desc>
    <defs></defs>
    <g id="Page-1" stroke="none" stroke-width="1" fill="none" fill-rule="evenodd">
        <g id="学位课程2" transform="translate(-1324.000000, -286.000000)" fill="#FFFFFF" fill-rule="nonzero">
            <path d="M1338.56978,292.227173 C1338.49515,290.622298 1337.78618,289.092424 1336.66676,287.93569 C1334.12941,285.361023 1329.98755,285.361023 1327.41289,287.898376 L1327.37557,287.93569 C1326.21884,289.092424 1325.54719,290.622298 1325.47256,292.2268 C1323.83074,293.458162 1323.53223,295.771631 1324.72628,297.413074 C1325.39793,298.30861 1326.48004,298.86832 1327.63677,298.86832 C1328.04723,298.86832 1328.38305,298.532494 1328.38305,298.12204 L1328.38305,292.226427 C1328.38305,291.8156 1328.04723,291.480147 1327.63677,291.480147 C1327.41289,291.480147 1327.22632,291.480147 1327.00243,291.517461 C1327.56214,288.756225 1330.28607,287.002466 1333.0473,287.562176 C1335.02495,287.97263 1336.59213,289.539819 1337.00296,291.517461 C1336.81639,291.480147 1336.59213,291.480147 1336.40556,291.480147 C1335.99511,291.480147 1335.65928,291.815973 1335.65928,292.226427 L1335.65928,298.12204 C1335.65928,298.532494 1335.99511,298.86832 1336.40556,298.86832 C1336.66676,298.86832 1336.89065,298.830633 1337.15184,298.793692 L1337.15184,300.54745 C1337.15184,300.92059 1336.85333,301.219102 1336.48019,301.219102 L1335.21152,301.219102 C1335.09957,300.92059 1334.83838,300.73402 1334.53986,300.73402 L1332.03982,300.73402 C1331.62937,300.73402 1331.29354,301.069473 1331.29354,301.4803 L1331.29354,302.450464 C1331.29354,302.861292 1331.62937,303.196744 1332.03982,303.196744 L1334.53986,303.196744 C1334.83838,303.196744 1335.13726,303.010174 1335.21152,302.711662 L1336.48019,302.711662 C1337.67424,302.711662 1338.60709,301.741498 1338.60709,300.584764 L1338.60709,298.159727 C1340.24853,296.928365 1340.54742,294.577582 1339.31568,292.973453 C1339.05486,292.674568 1338.83097,292.450684 1338.56978,292.227173 Z M1326.89049,297.264564 C1325.73376,296.853737 1325.13673,295.585434 1325.5845,294.428326 C1325.80839,293.831302 1326.29347,293.346593 1326.89049,293.122336 L1326.89049,297.264564 Z M1337.11453,297.264564 L1337.11453,293.085022 C1338.27126,293.495476 1338.86829,294.764152 1338.42052,295.920887 C1338.19664,296.555225 1337.71155,297.040307 1337.11453,297.264564 Z" id="icon6"></path>
        </g>
    </g>
</svg>