<?xml version="1.0" encoding="UTF-8"?>
<svg width="27px" height="28px" viewBox="0 0 27 28" version="1.1" xmlns="http://www.w3.org/2000/svg" xmlns:xlink="http://www.w3.org/1999/xlink">
    <!-- Generator: Sketch 49.3 (51167) - http://www.bohemiancoding.com/sketch -->
    <title>微信 </title>
    <desc>Created with Sketch.</desc>
    <defs></defs>
    <g id="第二版" stroke="none" stroke-width="1" fill="none" fill-rule="evenodd">
        <g id="购买课程" transform="translate(-638.000000, -589.000000)" fill-rule="nonzero">
            <g id="微信-" transform="translate(638.549451, 589.868132)">
                <path d="M8.22857143,9.92967033 C8.22857143,10.4043956 8.61098901,10.7868132 9.08571429,10.7868132 C9.56043956,10.7868132 9.94285714,10.4043956 9.94285714,9.92967033 C9.94285714,9.45494505 9.56043956,9.07252747 9.08571429,9.07252747 C8.61098901,9.05934066 8.22857143,9.45494505 8.22857143,9.92967033 Z M12.0791209,9.9032967 C12.0791209,10.378022 12.4615385,10.7604396 12.9362637,10.7736264 C13.410989,10.7868132 13.7934066,10.3912088 13.8065934,9.91648352 C13.8065934,9.44175824 13.4241758,9.05934066 12.9494505,9.05934066 C12.4747253,9.03296703 12.0791209,9.42857143 12.0791209,9.9032967 Z M14.2417582,13.767033 C14.2417582,14.0967033 14.5054945,14.3604396 14.8351648,14.3604396 C15.1648352,14.3604396 15.4285714,14.0967033 15.4285714,13.767033 C15.4285714,13.4373626 15.1648352,13.1736264 14.8351648,13.1736264 C14.5054945,13.1604396 14.2417582,13.4373626 14.2417582,13.767033 Z M17.2879121,13.8065934 C17.2879121,14.1362637 17.5516484,14.4 17.8813187,14.4 C18.210989,14.4 18.4747253,14.1362637 18.4747253,13.8065934 C18.4747253,13.4769231 18.210989,13.2131868 17.8813187,13.2131868 C17.5516484,13.2131868 17.2879121,13.4769231 17.2879121,13.8065934 Z" id="Shape" fill="#50B674"></path>
                <path d="M13.1868132,0 C5.89450549,0 0,5.89450549 0,13.1868132 C0,20.4791209 5.89450549,26.3736264 13.1868132,26.3736264 C20.4791209,26.3736264 26.3736264,20.4791209 26.3736264,13.1868132 C26.3736264,5.89450549 20.4791209,0 13.1868132,0 Z M10.9318681,16.232967 C10.232967,16.232967 9.67912088,16.0879121 8.99340659,15.9428571 L7.05494505,16.9054945 L7.60879121,15.2571429 C6.22417582,14.2945055 5.40659341,13.0549451 5.40659341,11.5120879 C5.40659341,8.87472527 7.8989011,6.81758242 10.9450549,6.81758242 C13.6483516,6.81758242 16.0483516,8.46593407 16.5362637,10.7076923 C16.3648352,10.6813187 16.1802198,10.6813187 16.0087912,10.6813187 C13.3714286,10.6813187 11.3142857,12.6461538 11.3142857,15.0725275 C11.3142857,15.4813187 11.3802198,15.8637363 11.4857143,16.2197802 C11.2747253,16.2065934 11.1032967,16.232967 10.9318681,16.232967 Z M19.0417582,18.1714286 L19.4505495,19.556044 L17.9340659,18.7252747 C17.3802198,18.8703297 16.8263736,19.0153846 16.2857143,19.0153846 C13.6483516,19.0153846 11.5912088,17.221978 11.5912088,15.0065934 C11.5912088,12.7912088 13.6483516,10.9978022 16.2857143,10.9978022 C18.778022,10.9978022 20.9802198,12.7912088 20.9802198,15.0065934 C20.9802198,16.232967 20.1626374,17.3406593 19.0417582,18.1714286 Z" id="Shape" fill="#10C904"></path>
            </g>
        </g>
    </g>
</svg>