<?xml version="1.0" encoding="UTF-8"?>
<svg width="22px" height="14px" viewBox="0 0 22 14" version="1.1" xmlns="http://www.w3.org/2000/svg" xmlns:xlink="http://www.w3.org/1999/xlink">
    <!-- Generator: Sketch 55.2 (78181) - https://sketchapp.com -->
    <title>yanjing@1x</title>
    <desc>Created with Sketch.</desc>
    <defs>
        <polygon id="path-1" points="6.15350669e-17 0 22 0 22 14 6.15350669e-17 14"></polygon>
    </defs>
    <g id="页面1" stroke="none" stroke-width="1" fill="none" fill-rule="evenodd">
        <g id="注册独立复制-3" transform="translate(-1445.000000, -495.000000)">
            <g id="yanjing" transform="translate(1445.000000, 495.000000)">
                <mask id="mask-2" fill="white">
                    <use xlink:href="#path-1"></use>
                </mask>
                <g id="Clip-2"></g>
                <path d="M10.7848642,0 C12.2902543,0.00282497128 13.6473034,0.308774691 14.9500391,0.861882747 C16.4408844,1.49483622 17.7571377,2.39264407 18.9706579,3.44555884 C19.9968256,4.3358512 20.9241532,5.31848814 21.7808114,6.3670322 C22.0744115,6.72649647 22.0558115,7.02402458 21.8273927,7.35737119 C21.1982882,8.27599322 20.4789137,9.12057968 19.6996568,9.91676852 C18.6414797,10.9976931 17.4689445,11.9360633 16.1344156,12.6689568 C14.997053,13.2935953 13.7918596,13.7304264 12.4980995,13.9090659 C10.8955455,14.1302931 9.3379508,13.9436318 7.82136818,13.3952942 C6.21773284,12.8154556 4.81499463,11.9095192 3.52596563,10.8212124 C2.29016856,9.77799846 1.19946836,8.59931917 0.206878189,7.33093372 C-0.0637692358,6.98519455 -0.0681218715,6.78459494 0.189467647,6.42595684 C1.34510593,4.81638947 2.7217824,3.42005414 4.34144949,2.26011028 C5.41198158,1.49347703 6.56570038,0.882803524 7.82736995,0.479205741 C8.81520196,0.163128766 9.82890647,0.00333133405 10.7849724,0 L10.7848642,0 Z M15.7111556,2.74336692 C17.0623651,5.18534138 16.2902724,7.93150662 14.5173709,9.41112531 C12.6651758,10.9569709 10.0479441,11.1254298 8.05284188,9.81453654 C6.85381242,9.02668936 6.0816116,7.93462475 5.76616717,6.54463228 C5.45126345,5.15743813 5.69055027,3.85176839 6.40635607,2.62104033 C4.47978761,3.67624706 2.94144181,5.15181484 1.59993788,6.84911621 C2.2114967,7.60285053 2.84754924,8.31719516 3.53315694,8.98743292 C4.14893323,9.58957821 4.80039572,10.1513211 5.50627968,10.6507014 C6.78400804,11.5547455 8.16657814,12.2218385 9.72828219,12.4930357 C10.7243599,12.6660519 11.7189506,12.6656255 12.7103783,12.4673178 C14.1778654,12.1738406 15.4880087,11.5304934 16.6894713,10.6701564 C18.1162977,9.64839624 19.3218967,8.40516903 20.3642313,7.00550236 C20.4154356,6.93669032 20.41576,6.89338298 20.3576888,6.82998103 C19.9652487,6.40149152 19.5858124,5.96100921 19.1840993,5.54126111 C18.2870778,4.60379706 17.3103302,3.75619907 16.2113032,3.05214161 C16.0464437,2.94647169 15.8779886,2.84621186 15.7112638,2.74347352 L15.7111556,2.74336692 Z M7.25730985,5.59893317 C7.28201985,5.68088399 7.29913301,5.8100598 7.35785303,5.9170889 C7.46504682,6.11249163 7.73212563,6.19265685 7.98706572,6.13050748 C8.22867755,6.07147624 8.36458251,5.88846607 8.40018761,5.63110053 C8.44157821,5.33192008 8.47802139,5.02679653 8.56926453,4.74048836 C8.92123325,3.63584464 9.70503208,3.03111423 10.8617518,2.88672089 C11.1982024,2.84477273 11.4282162,2.59564224 11.4228362,2.26021688 C11.4179699,1.95320113 11.2204792,1.76302193 10.9100092,1.77624067 C10.7897305,1.78133095 10.6695329,1.80131895 10.5505248,1.82120035 C9.85499525,1.93750389 9.21418455,2.18338299 8.66872631,2.63260672 C7.74680564,3.39193768 7.37823743,4.41279169 7.25730985,5.59893317 Z" id="Fill-1" fill="#AAAAAA" mask="url(#mask-2)"></path>
            </g>
        </g>
    </g>
</svg>