<?xml version="1.0" encoding="UTF-8"?>
<svg width="29px" height="29px" viewBox="0 0 29 29" version="1.1" xmlns="http://www.w3.org/2000/svg" xmlns:xlink="http://www.w3.org/1999/xlink">
    <!-- Generator: Sketch 49.3 (51167) - http://www.bohemiancoding.com/sketch -->
    <title>支付宝</title>
    <desc>Created with Sketch.</desc>
    <defs></defs>
    <g id="第二版" stroke="none" stroke-width="1" fill="none" fill-rule="evenodd">
        <g id="购买课程" transform="translate(-492.000000, -588.000000)" fill="#4A90E2">
            <g id="支付宝" transform="translate(492.549451, 588.549451)">
                <g id="Group-3" transform="translate(0.000000, 0.015698)">
                    <path d="M15.894939,18.1464159 C15.894939,18.1464159 13.836863,19.7913389 13.0881501,20.2222176 C12.4302706,20.6007698 11.8125009,20.8527868 11.2622608,21.0274352 C10.7118507,21.2020836 10.2294466,21.3120034 9.81511661,21.3571605 C9.40085466,21.4024876 9.05759252,21.431539 8.78563636,21.4445187 C8.75981516,21.4574645 8.72729201,21.4640563 8.68854319,21.4640563 L8.37766812,21.4640563 C7.66542468,21.4640563 6.99533207,21.379858 6.36728823,21.2116995 C5.73931242,21.043473 5.19223625,20.794616 4.72595766,20.4647207 C4.2597131,20.1349614 3.89066377,19.7210718 3.61887772,19.2231879 C3.3469896,18.72527 3.21094349,18.1464498 3.21094349,17.4869312 C3.22390512,16.9177608 3.37913854,16.4004413 3.67701796,15.9349048 C3.97479531,15.4692663 4.3600722,15.0747103 4.83284861,14.751305 C5.30545492,14.4281034 5.82990777,14.1822025 6.40617312,14.0141459 C6.98237044,13.8459874 7.56179966,13.7749387 8.14463088,13.8008642 C8.71439841,13.8265857 9.26463844,13.8945084 9.79558911,14.0043941 C10.3265058,14.1144498 10.8348331,14.2469312 11.3204351,14.4020761 C11.8061051,14.5574248 12.2657498,14.7254815 12.6996073,14.9065518 C13.1334648,15.0876561 13.5445969,15.2622025 13.9330376,15.4303611 C14.0884751,15.4949538 14.2503425,15.5597504 14.4187757,15.6244451 C14.5869707,15.6890378 14.7618337,15.7536306 14.9430924,15.8183592 C15.3187076,15.339741 15.6358764,14.8710105 15.8948709,14.4118278 C16.1538654,13.9527132 16.3675793,13.5324017 16.5358424,13.1508255 C16.7042075,12.7691813 16.8337558,12.4492077 16.9244532,12.1903611 C17.0150486,11.9318543 17.0731888,11.75075 17.0991461,11.6472861 L8.66911775,11.6472861 L8.66911775,10.7159071 L12.6510947,10.7159071 L12.6510947,8.56253289 L7.11518465,8.56253289 L7.11518465,7.63139179 L12.6510947,7.63139179 L12.6510947,5.88531534 C12.6510947,5.76897367 12.7157668,5.6753295 12.8453151,5.60407702 C12.9747953,5.53306239 13.123701,5.48454139 13.2921682,5.45864993 C13.4862865,5.41977876 13.7064982,5.40037716 13.952395,5.40037716 L15.4481198,5.40037716 L15.4481198,7.63139179 L21.1394674,7.63139179 L21.1394674,8.56263483 L15.4480858,8.56263483 L15.4480858,10.7160091 L19.9706751,10.7160091 C19.9717297,10.7097231 19.9729885,10.7031992 19.9739751,10.6967094 L19.9739751,10.7160091 L19.9706751,10.7160091 C19.8796035,11.2924168 19.7255948,11.9001865 19.5076965,12.5397939 C19.3265058,13.0959166 19.0579176,13.7296797 18.7017278,14.4409133 C18.3456061,15.1523847 17.8761977,15.8830539 17.2934345,16.6331247 C17.2934345,16.6331247 21.7513857,18.7626801 26.457309,19.5129548 C27.2389193,17.7817269 27.6739675,15.8607302 27.6739675,13.8381723 C27.6738995,6.20569665 21.4789533,0.0182837187 13.836863,0.0182837187 C6.19494273,0.0182837187 -3.40200111e-06,6.20569665 -3.40200111e-06,13.8383762 C-3.40200111e-06,21.4708859 6.19494273,27.6583328 13.836931,27.6583328 C18.5773506,27.6583328 22.7605901,25.2774739 25.2542926,21.6477769 C22.719766,21.0970567 20.028237,19.9804621 15.894939,18.1464159 L15.894939,18.1464159 Z" id="Fill-1"></path>
                </g>
                <path d="M5.01736987,17.541361 C4.96531922,19.91274 7.65181327,20.0889174 8.06597316,20.1015573 C9.43500737,20.1437584 10.5407605,19.6271524 11.4020117,19.1162888 C12.2629907,18.6054592 13.6676099,17.2861161 13.7194905,17.2407551 C13.7712009,17.195428 13.8230474,17.146975 13.8747919,17.09526 C13.4992448,16.8882643 13.1301954,16.6974762 12.7676779,16.5228957 C12.4051605,16.3483492 10.5630096,15.3601925 8.92814288,15.1911505 C5.83231979,14.8708372 5.03305311,16.8200359 5.01736987,17.541361 L5.01736987,17.541361 Z" id="Fill-4"></path>
            </g>
        </g>
    </g>
</svg>