<?xml version="1.0" encoding="UTF-8"?>
<svg width="22px" height="10px" viewBox="0 0 22 10" version="1.1" xmlns="http://www.w3.org/2000/svg" xmlns:xlink="http://www.w3.org/1999/xlink">
    <!-- Generator: Sketch 55.2 (78181) - https://sketchapp.com -->
    <title>眼睛关闭@1x</title>
    <desc>Created with Sketch.</desc>
    <g id="页面1" stroke="none" stroke-width="1" fill="none" fill-rule="evenodd">
        <g id="注册独立复制-3" transform="translate(-1485.000000, -498.000000)" fill="#AAAAAA">
            <path d="M1506.86275,499.237825 C1507.09878,498.891892 1507.02015,498.430792 1506.70537,498.16178 C1506.35134,497.892769 1505.87915,497.969598 1505.60375,498.315408 C1505.56437,498.353869 1501.19721,503.388285 1496.00383,503.388285 C1490.96774,503.388285 1486.40379,498.315408 1486.36454,498.277071 C1486.08901,497.969598 1485.57757,497.931137 1485.26279,498.200118 C1484.94814,498.469129 1484.90876,498.968814 1485.18417,499.276286 C1485.26279,499.391546 1486.20714,500.429099 1487.70217,501.582067 L1485.69561,503.618836 C1485.38082,503.926308 1485.4202,504.425869 1485.73498,504.694881 C1485.81361,504.848601 1486.01039,504.925524 1486.20714,504.925524 C1486.40379,504.925524 1486.60054,504.848601 1486.75795,504.694881 L1488.9218,502.50436 C1489.94477,503.196103 1491.16449,503.849509 1492.50211,504.310579 L1491.67592,507.039245 C1491.55792,507.461854 1491.79392,507.884617 1492.22674,508 L1492.46274,508 C1492.81689,508 1493.13167,507.769326 1493.21033,507.423516 L1494.03652,504.694881 C1494.66608,504.810264 1495.33489,504.887062 1496.00371,504.887062 C1496.67252,504.887062 1497.34146,504.810264 1497.9709,504.694881 L1498.79712,507.385055 C1498.87587,507.730865 1499.2299,507.961539 1499.54468,507.961539 C1499.62343,507.961539 1499.70205,507.961539 1499.74143,507.923078 C1500.17424,507.807787 1500.41027,507.385055 1500.29224,506.962323 L1499.46605,504.272118 C1500.80381,503.810925 1502.0234,503.157642 1503.04637,502.465899 L1505.17097,504.618051 C1505.32834,504.771803 1505.525,504.848601 1505.72178,504.848601 C1505.9184,504.848601 1506.11518,504.771803 1506.27256,504.618051 C1506.58721,504.310579 1506.58721,503.849509 1506.31184,503.542037 L1504.30524,501.505145 C1505.9184,500.352301 1506.86275,499.237825 1506.86275,499.237825 Z" id="眼睛关闭"></path>
        </g>
    </g>
</svg>